HIERARCHY
ROOT Hips
{
	OFFSET -14.64140 90.27770 -84.91600
	CHANNELS 6 Xposition Yposition Zposition Zrotation Xrotation Yrotation
	JOINT Spine
	{
		OFFSET 0.00000 13.20850 -1.60436
		CHANNELS 3 Zrotation Xrotation Yrotation
		JOINT Spine1
		{
			OFFSET 0.00000 8.61716 0.00000
			CHANNELS 3 Zrotation Xrotation Yrotation
			JOINT Spine2
			{
				OFFSET 0.00000 8.61717 0.00000
				CHANNELS 3 Zrotation Xrotation Yrotation
				JOINT Spine3
				{
					OFFSET 0.00000 8.61717 0.00000
					CHANNELS 3 Zrotation Xrotation Yrotation
					JOINT Neck
					{
						OFFSET 0.00000 11.07920 1.10792
						CHANNELS 3 Zrotation Xrotation Yrotation
						JOINT Neck1
						{
							OFFSET 0.00000 7.08032 0.00000
							CHANNELS 3 Zrotation Xrotation Yrotation
							JOINT Head
							{
								OFFSET 0.00000 7.08031 0.00000
								CHANNELS 3 Zrotation Xrotation Yrotation
								End site
								{
									OFFSET 0.00000 0.00000 0.00000
								}
							}
						}
					}
					JOINT RightShoulder
					{
						OFFSET -0.01000 7.91373 5.19711
						CHANNELS 3 Zrotation Xrotation Yrotation
						JOINT RightArm
						{
							OFFSET -18.41580 0.00000 0.00000
							CHANNELS 3 Zrotation Xrotation Yrotation
							JOINT RightForeArm
							{
								OFFSET -29.11090 0.00000 0.00000
								CHANNELS 3 Zrotation Xrotation Yrotation
								JOINT RightHand
								{
									OFFSET -24.65040 0.00000 0.00000
									CHANNELS 3 Zrotation Xrotation Yrotation
									JOINT RightHandThumb1
									{
										OFFSET -5.35114 -0.85590 3.97906
										CHANNELS 3 Zrotation Xrotation Yrotation
										JOINT RightHandThumb2
										{
											OFFSET -4.52789 0.00000 0.00000
											CHANNELS 3 Zrotation Xrotation Yrotation
											JOINT RightHandThumb3
											{
												OFFSET -2.46976 0.00000 0.00000
												CHANNELS 3 Zrotation Xrotation Yrotation
												End site
												{
													OFFSET 0.00000 0.00000 0.00000
												}
											}
										}
									}
									JOINT RightHandIndex1
									{
										OFFSET -14.26970 0.00000 2.88139
										CHANNELS 3 Zrotation Xrotation Yrotation
										JOINT RightHandIndex2
										{
											OFFSET -5.48836 0.00000 0.00000
											CHANNELS 3 Zrotation Xrotation Yrotation
											JOINT RightHandIndex3
											{
												OFFSET -3.01859 0.00000 0.00000
												CHANNELS 3 Zrotation Xrotation Yrotation
												End site
												{
													OFFSET 0.00000 0.00000 0.00000
												}
											}
										}
									}
									JOINT RightHandMiddle1
									{
										OFFSET -14.26970 0.00000 -0.09147
										CHANNELS 3 Zrotation Xrotation Yrotation
										JOINT RightHandMiddle2
										{
											OFFSET -6.17441 0.00000 0.00000
											CHANNELS 3 Zrotation Xrotation Yrotation
											JOINT RightHandMiddle3
											{
												OFFSET -3.56743 0.00000 0.00000
												CHANNELS 3 Zrotation Xrotation Yrotation
												End site
												{
													OFFSET 0.00000 0.00000 0.00000
												}
											}
										}
									}
									JOINT RightHandRing1
									{
										OFFSET -12.69180 0.00000 -3.06433
										CHANNELS 3 Zrotation Xrotation Yrotation
										JOINT RightHandRing2
										{
											OFFSET -5.62556 0.00000 0.00000
											CHANNELS 3 Zrotation Xrotation Yrotation
											JOINT RightHandRing3
											{
												OFFSET -3.56744 0.00000 0.00000
												CHANNELS 3 Zrotation Xrotation Yrotation
												End site
												{
													OFFSET 0.00000 0.00000 0.00000
												}
											}
										}
									}
									JOINT RightHandPinky1
									{
										OFFSET -11.11390 0.00000 -6.03719
										CHANNELS 3 Zrotation Xrotation Yrotation
										JOINT RightHandPinky2
										{
											OFFSET -4.52789 0.00000 0.00000
											CHANNELS 3 Zrotation Xrotation Yrotation
											JOINT RightHandPinky3
											{
												OFFSET -2.46976 0.00000 0.00000
												CHANNELS 3 Zrotation Xrotation Yrotation
												End site
												{
													OFFSET 0.00000 0.00000 0.00000
												}
											}
										}
									}
								}
							}
						}
					}
					JOINT LeftShoulder
					{
						OFFSET 0.01000 7.91373 5.19711
						CHANNELS 3 Zrotation Xrotation Yrotation
						JOINT LeftArm
						{
							OFFSET 18.41580 0.00000 0.00000
							CHANNELS 3 Zrotation Xrotation Yrotation
							JOINT LeftForeArm
							{
								OFFSET 29.11090 0.00000 0.00000
								CHANNELS 3 Zrotation Xrotation Yrotation
								JOINT LeftHand
								{
									OFFSET 24.65040 0.00000 0.00000
									CHANNELS 3 Zrotation Xrotation Yrotation
									JOINT LeftHandThumb1
									{
										OFFSET 5.35114 -0.85590 3.97906
										CHANNELS 3 Zrotation Xrotation Yrotation
										JOINT LeftHandThumb2
										{
											OFFSET 4.52789 0.00000 0.00000
											CHANNELS 3 Zrotation Xrotation Yrotation
											JOINT LeftHandThumb3
											{
												OFFSET 2.46977 0.00000 0.00000
												CHANNELS 3 Zrotation Xrotation Yrotation
												End site
												{
													OFFSET 0.00000 0.00000 0.00000
												}
											}
										}
									}
									JOINT LeftHandIndex1
									{
										OFFSET 14.26970 0.00000 2.88139
										CHANNELS 3 Zrotation Xrotation Yrotation
										JOINT LeftHandIndex2
										{
											OFFSET 5.48836 0.00000 0.00000
											CHANNELS 3 Zrotation Xrotation Yrotation
											JOINT LeftHandIndex3
											{
												OFFSET 3.01859 0.00000 0.00000
												CHANNELS 3 Zrotation Xrotation Yrotation
												End site
												{
													OFFSET 0.00000 0.00000 0.00000
												}
											}
										}
									}
									JOINT LeftHandMiddle1
									{
										OFFSET 14.26970 0.00000 -0.09147
										CHANNELS 3 Zrotation Xrotation Yrotation
										JOINT LeftHandMiddle2
										{
											OFFSET 6.17440 0.00000 0.00000
											CHANNELS 3 Zrotation Xrotation Yrotation
											JOINT LeftHandMiddle3
											{
												OFFSET 3.56744 0.00000 0.00000
												CHANNELS 3 Zrotation Xrotation Yrotation
												End site
												{
													OFFSET 0.00000 0.00000 0.00000
												}
											}
										}
									}
									JOINT LeftHandRing1
									{
										OFFSET 12.69180 0.00000 -3.06433
										CHANNELS 3 Zrotation Xrotation Yrotation
										JOINT LeftHandRing2
										{
											OFFSET 5.62556 0.00000 0.00000
											CHANNELS 3 Zrotation Xrotation Yrotation
											JOINT LeftHandRing3
											{
												OFFSET 3.56744 0.00000 0.00000
												CHANNELS 3 Zrotation Xrotation Yrotation
												End site
												{
													OFFSET 0.00000 0.00000 0.00000
												}
											}
										}
									}
									JOINT LeftHandPinky1
									{
										OFFSET 11.11390 0.00000 -6.03719
										CHANNELS 3 Zrotation Xrotation Yrotation
										JOINT LeftHandPinky2
										{
											OFFSET 4.52789 0.00000 0.00000
											CHANNELS 3 Zrotation Xrotation Yrotation
											JOINT LeftHandPinky3
											{
												OFFSET 2.46976 0.00000 0.00000
												CHANNELS 3 Zrotation Xrotation Yrotation
												End site
												{
													OFFSET 0.00000 0.00000 0.00000
												}
											}
										}
									}
								}
							}
						}
					}
					JOINT pCube4
					{
						OFFSET 0.00000 10.91090 1.10792
						CHANNELS 3 Zrotation Xrotation Yrotation
						End site
						{
							OFFSET 0.00000 0.00000 0.00000
						}
					}
				}
			}
		}
	}
	JOINT RightUpLeg
	{
		OFFSET -9.98441 0.00000 0.00000
		CHANNELS 3 Zrotation Xrotation Yrotation
		JOINT RightLeg
		{
			OFFSET 0.00000 -42.11790 0.00000
			CHANNELS 3 Zrotation Xrotation Yrotation
			JOINT RightFoot
			{
				OFFSET 0.00000 -45.00020 -0.00001
				CHANNELS 3 Zrotation Xrotation Yrotation
				JOINT RightForeFoot
				{
					OFFSET 0.00000 -3.74820 0.00000
					CHANNELS 3 Zrotation Xrotation Yrotation
					JOINT RightToeBase
					{
						OFFSET 0.00000 0.06325 14.43120
						CHANNELS 3 Zrotation Xrotation Yrotation
						End site
						{
							OFFSET 0.00000 0.00000 0.00000
						}
					}
				}
			}
		}
	}
	JOINT LeftUpLeg
	{
		OFFSET 9.98441 0.00000 0.00000
		CHANNELS 3 Zrotation Xrotation Yrotation
		JOINT LeftLeg
		{
			OFFSET 0.00000 -42.11800 0.00000
			CHANNELS 3 Zrotation Xrotation Yrotation
			JOINT LeftFoot
			{
				OFFSET 0.00000 -45.00070 0.00000
				CHANNELS 3 Zrotation Xrotation Yrotation
				JOINT LeftForeFoot
				{
					OFFSET 0.00000 -3.74824 0.00000
					CHANNELS 3 Zrotation Xrotation Yrotation
					JOINT LeftToeBase
					{
						OFFSET 0.00000 0.06325 14.43110
						CHANNELS 3 Zrotation Xrotation Yrotation
						End site
						{
							OFFSET 0.00000 0.00000 0.00000
						}
					}
				}
			}
		}
	}
}
MOTION
Frames: 4
Frame Time: 0.050000
-0.029056553416570943 0.04234584307515235 -0.0328166286339588 -0.00025165949548443175 0.03702555483921013 -0.014533942434709186 -3.1186259441168502 0.9325793943874622 -0.7899450566519333 -0.8051268167015924 3.4465171442887943 0.30948949298093964 -0.8089532944606113 -1.945531116651259 -2.1227785079461894 -0.9952447071501312 -0.14210448184316554 -0.9472797602529419 -1.982399659475106 11.588481345703915 4.7932884221975804 -0.23702401168837384 -0.4404007777630516 10.29138775428814 -1.6365188227595708 -15.280626019403277 0.8862875154863862 -1.894748426722786 1.2527925674404747 -12.58112914426853 69.16679831132652 14.35780165503682 4.46522210787574 51.61503293591081 9.989676053292479 91.62239367060064 21.486963849340462 -0.2032251519338117 -4.3196909417073375 4.527487843305887 -0.16340267986900103 -1.5712591367082482 -0.011093964701589432 0.00680964994699394 -56.28290558759082 -0.0018959697377931171 -0.030615447015371663 -56.22179866294197 -38.76042151457918 -0.046833555249659174 0.027980926124490844 -0.006925848750783947 -0.015231292958768105 0.0065998144152298105 0.01374128152095866 0.011346979654652955 -0.019086638262823294 -36.692299731517345 0.0064041406826000225 0.007681243401004132 -0.030019549446977066 -0.03326250999918715 -0.01789516759105954 0.033879629887772725 -0.04736401509294523 0.04052916767678323 -19.7755200215104 -0.012137482008336774 -0.018125333284073886 -0.019496176169316457 -0.04543753171163908 0.03820041206143783 -0.031721737654182645 0.014900638746941098 -0.0231891793424941 24.040129660168965 0.012468215530653724 -0.02523492109436845 28.890927279525346 -0.006624836932294595 0.04465933130943098 28.87071035906953 -0.03754557915965682 -0.01544149443324862 8.322487348714702 1.9686080152720997 11.592269450819044 -67.08303534372476 12.348849649471655 -20.511086058090765 -70.95675049203047 6.99781390493859 -101.96603088278928 -21.646990916519037 1.0962149873385127 -2.279467281404409 -0.4979160746791258 0.07958268849353738 -8.16004440801714 -0.02679241346525588 -0.02743209493436034 44.565166163615864 -0.000857687241997083 -0.005077691292726382 44.5761785246755 12.424790974608353 0.004005176072911705 0.01617256910957019 0.046806975620621576 -0.004635474945279442 0.004132737474406866 -0.030816763366814878 0.01189602679851605 -0.03826549261564479 11.096259677144433 -0.0266133380906613 0.029786523184460487 0.02618012023561289 0.037624180656255155 -0.03331006086994699 -0.0009016997622005635 -0.008597390204762545 -0.0021385471829712685 4.7520927284823005 0.03767286268254732 -0.013306296088519416 -0.04330324463637501 -0.01535402264844693 -0.03939832182102455 0.004340851238288677 -0.0008674810382245892 -0.0273388530423187 -5.624109142160075 0.008903707417018621 -0.009218038503571231 -6.711239208018184 -0.01635449639031918 -0.03521592186446906 -6.722036357240113 0.0077405568324789235 -0.026923749574822773 -0.009205898697632739 -0.03797629984380054 -0.034603084255545064 8.002549077139902 3.477973439107164 -19.209441430707933 -0.03638281668459369 10.372719610191849 0.028477916419060334 -5.64673629409397 -15.664296273625036 3.179504380889302 0.020410449365920458 -0.004979693879744902 0.028926280730216268 -0.014220512281166267 4.692654924599418 0.039399696691804334 12.418927002387656 -8.265248959106117 6.834147265037605 -0.04043954117760514 46.35778457190532 0.041205588028317724 -4.300563786614975 -14.76396126292879 -3.8251502653540994 0.03525203836059291 -0.014243912430448421 -0.044923698255367774 0.03753328692465535 -10.747560247526792 0.04761532787053808 
-0.04695624582302864 -0.0114999627320156 -0.029200933634288846 0.014157785099953427 -0.029630068994331973 0.04777403070080693 -3.1869792718691667 0.9730081864773428 -0.7804503510886229 -0.7807313753100341 3.466510733391909 0.3044909597362165 -0.8512176420959532 -1.9085497650169323 -2.150271670494097 -0.989888162052928 -0.13805641401923463 -0.9879827712176603 -1.9396331372202666 11.510748390005823 4.695121033100963 -0.1610502842442731 -0.5857017178681441 10.111694599426286 -1.5880420809663922 -15.439723340636062 0.855989492910162 -2.0004898297738576 1.3025534129671097 -12.53786166379275 69.66008406061282 15.089942839834082 5.081626082251854 49.561273708921085 9.615287261344797 92.66906354911974 21.64673955006637 -0.19155666774934935 -4.410145641628132 4.497880666714117 -0.14776676683750717 -1.602950977093395 -0.023958858827278613 -0.024610013093200832 -56.2413499552134 0.026041333924998973 0.02432098236167185 -56.25031557243103 -38.74655878900457 -0.009706469451308269 -0.038040440589551576 -0.04987271652350318 -0.0054210191644412185 -0.0234272604037273 -0.008342987192936616 -0.00784845649976498 0.031459824383225 -36.70687597122321 0.028793856379186435 0.011047388241524993 -0.04441509819057113 0.04106231848765903 -0.03397109744004181 0.027675207157416393 -0.007004407224833428 -0.02171496249100501 -19.770293177254732 0.002873691217581615 0.023132434014404697 -0.04106242417080508 -0.010937219886843114 -0.015981719601261588 0.0285348394190097 0.043149487600334706 0.02244222089272316 24.036327744320552 -0.03691259070516451 -0.03662631327775334 28.83195908442735 -0.010887430944530393 0.025224016571861775 28.884208328306965 0.020075563094897445 -0.04840848637785289 8.297664351814646 1.9003000967251742 11.494620240854537 -67.41173012936768 13.526534678382012 -20.71266407235072 -68.05379969722466 7.456691023115224 -100.87320055861183 -21.414683766261312 0.5776161219568493 -1.6753777439852542 -0.4504514212492274 0.0992481817613923 -8.10266761908593 0.012576806228188799 0.01638262186824137 44.589940916147185 0.01593048700791885 0.02453209216760565 44.60330758450315 12.472048656205606 0.004192841874745032 -0.03857617115355662 0.03145606404846242 0.023491668819599965 -0.006913299067874199 0.0458975230817725 -0.00781878799309503 -0.03225735871171377 11.081178288673591 0.043069780493374434 -0.005806409256614121 0.04469017287252712 -0.0318044748195704 -0.02884627981871841 0.0046131856640381245 -0.02701749592211551 -0.021389686003586428 4.821247163727267 0.002166242449706201 -0.046406774708886774 -0.044545155085176216 0.04337808969506882 0.04230662124531749 0.0026373637371482615 -0.021997329951778024 -0.00683675112145611 -5.625342555281594 0.004840916640040716 -0.034724279462406166 -6.718730494893533 0.026370915667864973 0.028541696403458897 -6.73686531086167 -0.017354478712902303 -0.0008975686486070669 -0.0313113196026571 -0.019602059222392335 0.04200913875551425 8.030843616300043 3.537166198001693 -19.178068451932848 -0.0073276340818849576 10.443043584483025 -0.0024203877666696613 -5.581744535663436 -15.706808831731683 3.168593859069504 -0.03139777097641458 0.010102091955992354 0.020495851402414632 0.040043816101274624 4.710116389638344 0.042087706101311385 12.430018446821679 -8.278411997810135 6.931624467226071 0.007843117232202192 46.35042373008071 0.022836031775614246 -4.329860268489929 -14.704886192273955 -3.822733080639368 -0.045527637222589026 0.03475487270098429 -0.010299006638576684 0.009032268861850845 -10.762963996743446 -0.0012318991326007833 
-0.0424517963914378 0.005750647167183661 -0.024937493673119687 0.0071056388942377854 -0.025805504560761573 -0.013543130142413196 -3.209312344883191 0.9555861490536998 -0.7658326169464531 -0.7297252900030402 3.4527492213647673 0.3485015734777332 -0.9028875266916966 -1.988506489595375 -2.2315631710767843 -0.9553011224370278 -0.08553978634483486 -0.9235259886799949 -1.9411240149576907 11.413593703843192 4.628103040520059 -0.142307188403602 -0.5509458485374004 9.917698313854535 -1.555795746468822 -15.466869736179135 0.8791307677885609 -2.16041096056765 1.2912545935333368 -12.597130282302901 69.58692938111292 15.178212900817005 5.2958068868940105 47.89706257225168 8.973603631463465 94.02971437141227 22.069438284606026 -0.19540024493533178 -4.6033390770883 4.533707511041729 -0.13316216720069046 -1.5726382807026789 -0.03719361225654105 -0.047525530678984344 -56.246356274410246 0.002590970884170485 0.017369852867148157 -56.239387089240786 -38.765174004319654 -0.019412766344188603 -0.026217357377774884 0.0023072177265612455 0.01179754441930241 -0.04822713043106973 0.017670925836205772 0.006921691998853602 0.03951580654590208 -36.732547974588044 -0.04902491043418597 -0.03360772834388024 0.04475494813325475 0.02576125270154575 0.03831734398383606 -0.047105459095823365 -0.008966776807220984 -0.0014543165627932983 -19.732410325893653 0.04640937918188234 -0.042119457875412825 -0.03534135224524496 0.0020582310168003465 -0.04706665753514947 0.005897069548742551 0.012539538930655165 -0.029175913114466885 24.08902484793387 -0.0032291587785051325 0.015033533871231027 28.90829209433658 -0.03432201556629756 0.04096749190639611 28.865578808512062 0.03384549018892349 0.040618876027653045 8.396678742007042 1.956846896321081 11.444811357265612 -67.65075663334349 13.877003193723608 -21.139798491951115 -66.29116142427738 7.366926806819844 -99.62276971019794 -21.140443208011597 -0.0005069566936347636 -0.938596398657759 -0.5119812936991073 0.07636897394003188 -8.125469343108769 -0.049317481795842076 0.03848808629269465 44.52076793743172 -0.044048165264153075 -0.019078693067872778 44.60142963886705 12.455620554408778 0.014116848015272347 0.002294200874845152 0.02829721491615191 0.0371834398709592 -0.009049202459973689 -0.03506056836907829 -0.006157948424380133 0.009147262209191842 11.08836730599126 -0.013204630236893377 0.046230080923929086 0.0030484938287952752 -0.0033781521174669833 0.023037525745695404 -0.01257301812484444 0.02716909625645866 0.02720188467366418 4.805093353270059 -0.008562728844317155 -0.011597625481514174 -0.001522361627791076 -0.01936113975110345 -0.004903872883779785 0.025149492812905978 0.040914925855798596 0.019830221019282456 -5.583739242811437 -0.03751600398325112 -0.02527072917392701 -6.719544781405409 0.015407571940332408 -0.019640587921246296 -6.720891012962758 0.025563241000401467 0.017119353291729086 0.01949926010355889 -0.030222255995006997 -0.0024469735682158124 8.00321124864699 3.4967296247878337 -19.265966420591834 0.04026474798210224 10.363114277909203 -0.017970650140261602 -5.594754842607841 -15.616750003426688 3.190286724355713 0.03758400640453486 -0.02348163988473734 0.01708165123282122 0.040039123410677176 4.671025261829944 -0.0004521853948022326 12.461439171774272 -8.25887863909861 6.891424858499321 -0.035582050751182454 46.372174143888095 -0.014080269244223103 -4.302405278486181 -14.752687807342301 -3.810171745813689 0.03262454417188408 -0.03441249690858109 -0.04594054488297489 -0.010605400873287476 -10.764777521160308 -0.01313461844908896 
-0.0227603370082326 -0.02981672743220509 -0.026181818048641732 0.02082806738635093 -0.03619447035755805 -0.021763821017170084 -3.132249607070806 0.7876910024896909 -0.7944179886231864 -0.7971212676199878 3.4364583574818934 0.3564296417911849 -0.8493343197619794 -2.0700514207323812 -2.466040861710155 -0.964358865327498 -0.14953505323361727 -0.9981911046309406 -1.8467216694132054 11.45422881073666 4.544768383762704 -0.14789682244553598 -0.5415151664752395 9.899645926460455 -1.5041438114460686 -15.457637662130463 0.8872098597376286 -2.418403613484857 1.424701582440334 -12.789082146050784 68.97061462643723 13.985332606463722 5.437835122133737 47.69882893915345 8.380485561393813 95.2434079666925 22.67091786560869 -0.23191405914566568 -4.544684725061984 4.531891067953121 -0.16144380488395882 -1.593075139544986 0.01691077742761649 -0.03715861531159239 -56.19974188046031 -0.02733907063702252 0.03917936660216966 -56.23172051108213 -38.813736806604076 0.0384902870620633 0.006542769667009077 0.011526946823545901 -0.0035001520243652237 0.0039912112306591955 0.015656706156881233 0.014349031858562015 -0.03951150199316932 -36.68818683839431 0.011217657889088689 -0.03844185246515021 0.029069900550620247 -0.0063890809143671914 -0.040171254674591476 -0.0031146165443443337 0.007928659671970345 0.0006722066422517745 -19.798310006355717 0.04607688013736339 -0.012302768421315727 -0.021355635815861494 -0.0152557552086574 0.003137210507477664 0.049835507924360485 0.013403138512965594 0.03459998412804211 24.088034350054727 -0.004239459082203446 0.015136267565939878 28.84884660746124 0.03997915898368381 0.04017758208824458 28.847548659626423 -0.016715361681279604 -0.024680804591505453 8.579230444523686 1.9922975630568753 11.338872039149098 -67.57426028789615 13.560240058086121 -21.644118278237862 -67.26841952358912 7.136471194369885 -99.19021496400936 -21.22384569638247 -0.7742003163060306 -0.31197166259473746 -0.4411791535301374 0.07636356600507348 -8.13507166132687 -0.006995353578482271 -0.033036758200048685 44.59080599044891 -0.006121818738528897 -0.0477853129905125 44.54787851867709 12.427997942660188 -0.03587150808564933 -0.04713344188447635 0.03854269897083594 0.03359734196305082 -0.031160200275466735 0.04976904914526384 -0.029698440374456892 -0.024096936513573662 11.155096969832144 0.015347464358300105 -0.02189993532887795 0.015248506241705252 0.032150218422344536 -0.006916262759539759 0.02172837780532545 0.025451175072934536 0.008833867082842102 4.820282226450997 0.03159582089325967 0.0010554475760675822 -0.029783346726598423 -0.024077291506708176 -0.01655555537892574 0.0006659482130194803 -0.04210925296759302 0.01697242680563328 -5.573826159530779 -0.02696514337042654 0.03976131620214993 -6.717922554060609 0.02818954931752066 -0.041477720975892585 -6.747340859743695 0.04242957211035716 -0.0005158587770668007 -0.018521312038991173 0.03480792932147562 0.03988302855387717 8.011382575466344 3.511320641278514 -19.200152117617943 -0.002935251388871462 10.423486987235885 0.04582571467608636 -5.632479742137838 -15.642733698318198 3.1940763997279005 0.007219270310651344 -0.0005012793840762746 -0.04151429740692181 -0.013197098760349961 4.6819794225876565 -0.01676948526501683 12.462795185588782 -8.246609205796332 6.8380386568194265 0.03339508921860837 46.39174469165345 -0.014217738044133767 -4.282990791276648 -14.785707537147957 -3.854447715253904 0.03640709983243454 0.03337842347061019 0.021427791373361524 0.01775029350625816 -10.760508109136303 -0.0292973673136357 
